<svg id="Capa_1" enable-background="new 0 0 512.001 512.001" height="512" viewBox="0 0 512.001 512.001" width="512" xmlns="http://www.w3.org/2000/svg"><g><path d="m354.466 378.604h-323.695c-12.852 0-23.271-10.419-23.271-23.271v-273.695c0-12.852 10.419-23.271 23.271-23.271h323.695c12.852 0 23.271 10.419 23.271 23.271v273.695c0 12.853-10.418 23.271-23.271 23.271z" fill="#f9f6f6"/><path d="m354.466 58.367h-17.527c12.852 0 23.271 10.419 23.271 23.271 0 13.212-10.71 23.922-23.922 23.922h-17.21c-12.432 0-22.51 10.078-22.51 22.51v250.535h40.37 17.527c12.852 0 23.271-10.419 23.271-23.271v-249.774-23.922c.001-12.852-10.417-23.271-23.27-23.271z" fill="#efe7e4"/><path d="m40.5 341.476v-245.981c0-2.28 1.848-4.128 4.128-4.128h295.982c2.28 0 4.128 1.848 4.128 4.128v245.981c0 2.28-1.848 4.128-4.128 4.128h-295.982c-2.28 0-4.128-1.848-4.128-4.128z" fill="#b1e4f9"/><path d="m340.61 91.367h-18.043c2.28 0 4.128 1.848 4.128 4.128v2.449c0 4.206-3.41 7.616-7.616 7.616-12.432 0-22.51 10.078-22.51 22.51v217.534h25.998 18.043c2.28 0 4.128-1.848 4.128-4.128v-235.916-10.065c0-2.28-1.849-4.128-4.128-4.128z" fill="#90d8f9"/><path d="m277.725 407.92h-170.212c-3.69 0-6.681-2.991-6.681-6.681v-22.634h183.574v22.634c0 3.689-2.991 6.681-6.681 6.681z" fill="#544f57"/><path d="m265.48 378.604v22.634c0 3.69-2.991 6.681-6.681 6.681h18.926c3.69 0 6.681-2.991 6.681-6.681v-22.634z" fill="#454045"/><path d="m144.105 407.92h97.028v45.714h-97.028z" fill="#f9f6f6"/><path d="m144.105 407.92v12.969h68.016c7.68 0 13.906 6.226 13.906 13.906v18.839h15.107v-45.714z" fill="#efe7e4"/><path d="m485.319 453.634h-149.673c-10.594 0-19.182-8.588-19.182-19.182v-291.115c0-10.594 8.588-19.182 19.182-19.182h149.673c10.594 0 19.182 8.588 19.182 19.182v291.115c0 10.594-8.588 19.182-19.182 19.182z" fill="#544f57"/><path d="m485.319 124.156h-18.692c10.594 0 19.182 8.588 19.182 19.182v291.115c0 10.594-8.588 19.182-19.182 19.182h18.692c10.594 0 19.182-8.588 19.182-19.182v-291.116c0-10.593-8.588-19.181-19.182-19.181z" fill="#454045"/><circle cx="410.483" cy="334.833" fill="#dd636e" r="20.833"/><path d="m410.483 314c-2.525 0-4.934.472-7.173 1.295 7.966 2.927 13.66 10.558 13.66 19.539s-5.694 16.612-13.66 19.539c2.239.823 4.648 1.295 7.173 1.295 11.506 0 20.833-9.327 20.833-20.833 0-11.508-9.327-20.835-20.833-20.835z" fill="#da4a54"/><circle cx="410.483" cy="403.095" fill="#dd636e" r="20.833"/><path d="m410.483 382.262c-2.525 0-4.934.472-7.173 1.295 7.966 2.927 13.66 10.558 13.66 19.539s-5.694 16.612-13.66 19.539c2.239.823 4.648 1.295 7.173 1.295 11.506 0 20.833-9.327 20.833-20.833s-9.327-20.835-20.833-20.835z" fill="#da4a54"/><g><path d="m453.935 151.453h-86.905c-4.143 0-7.5 3.358-7.5 7.5s3.357 7.5 7.5 7.5h86.904c4.143 0 7.5-3.358 7.5-7.5s-3.357-7.5-7.499-7.5z"/><path d="m453.935 190.739h-86.905c-4.143 0-7.5 3.358-7.5 7.5s3.357 7.5 7.5 7.5h86.904c4.143 0 7.5-3.358 7.5-7.5s-3.357-7.5-7.499-7.5z"/><path d="m461.435 237.524c0-4.142-3.357-7.5-7.5-7.5h-86.905c-4.143 0-7.5 3.358-7.5 7.5s3.357 7.5 7.5 7.5h86.904c4.143 0 7.501-3.357 7.501-7.5z"/><path d="m410.482 306.5c-15.623 0-28.333 12.711-28.333 28.334s12.71 28.333 28.333 28.333 28.333-12.71 28.333-28.333-12.71-28.334-28.333-28.334zm0 41.667c-7.352 0-13.333-5.981-13.333-13.333 0-7.353 5.981-13.334 13.333-13.334s13.333 5.981 13.333 13.334c0 7.352-5.981 13.333-13.333 13.333z"/><path d="m410.482 374.762c-15.623 0-28.333 12.711-28.333 28.334s12.71 28.333 28.333 28.333 28.333-12.71 28.333-28.333-12.71-28.334-28.333-28.334zm0 41.667c-7.352 0-13.333-5.981-13.333-13.333 0-7.353 5.981-13.334 13.333-13.334s13.333 5.981 13.333 13.334c0 7.351-5.981 13.333-13.333 13.333z"/><path d="m354.737 271.395h-10.897c-4.143 0-7.5 3.357-7.5 7.5s3.357 7.5 7.5 7.5h10.897c4.143 0 7.5-3.357 7.5-7.5s-3.357-7.5-7.5-7.5z"/><path d="m399.29 278.895c0-4.143-3.357-7.5-7.5-7.5h-10.896c-4.143 0-7.5 3.357-7.5 7.5s3.357 7.5 7.5 7.5h10.896c4.143 0 7.5-3.358 7.5-7.5z"/><path d="m504.501 263.008c4.143 0 7.5-3.357 7.5-7.5v-112.17c0-14.712-11.97-26.682-26.682-26.682h-100.082v-35.017c0-16.967-13.804-30.771-30.771-30.771h-253.635c-4.143 0-7.5 3.358-7.5 7.5s3.357 7.5 7.5 7.5h253.635c8.696 0 15.771 7.075 15.771 15.771v35.017h-18v-21.161c0-6.412-5.216-11.628-11.628-11.628h-295.981c-6.412 0-11.628 5.216-11.628 11.628v245.981c0 6.412 5.216 11.628 11.628 11.628h26.217c4.143 0 7.5-3.357 7.5-7.5s-3.357-7.5-7.5-7.5h-22.845v-239.237h289.237v17.789h-1.591c-14.712 0-26.682 11.969-26.682 26.682v194.767h-208.133c-4.143 0-7.5 3.357-7.5 7.5s3.357 7.5 7.5 7.5h208.134v18c-15.06 0-265.965 0-278.193 0-8.696 0-15.771-7.075-15.771-15.771v-273.695c0-8.696 7.075-15.771 15.771-15.771h40.073c4.143 0 7.5-3.358 7.5-7.5s-3.357-7.5-7.5-7.5h-40.074c-16.967-.001-30.771 13.803-30.771 30.771v273.694c0 16.968 13.804 30.771 30.771 30.771h62.561v15.134c0 7.819 6.361 14.182 14.181 14.182h29.092v30.714h-27.992c-4.143 0-7.5 3.357-7.5 7.5s3.357 7.5 7.5 7.5h168.013c4.143 0 7.5-3.357 7.5-7.5s-3.357-7.5-7.5-7.5h-27.992v-30.714h29.092c7.819 0 14.182-6.362 14.182-14.182v-15.134h17.059v48.348c0 14.712 11.97 26.682 26.682 26.682h149.673c14.712 0 26.682-11.97 26.682-26.682v-148.957c0-4.143-3.357-7.5-7.5-7.5s-7.5 3.357-7.5 7.5v148.957c0 6.441-5.24 11.682-11.682 11.682h-149.676c-6.441 0-11.682-5.24-11.682-11.682v-291.115c0-6.441 5.24-11.682 11.682-11.682h149.673c6.441 0 11.682 5.24 11.682 11.682v112.17c0 4.143 3.357 7.501 7.5 7.501zm-270.868 183.126h-82.028v-30.714h82.028zm43.273-45.714c-17.118 0-149.508 0-168.574 0v-14.315h168.574z"/></g></g></svg>